REM MD5 d14b18d67b80a82048eaf8c5cddb31d7
FILE "Euro Demo Germany 11-02 (Germany).bin" BINARY
  TRACK 01 MODE2/2352
    INDEX 01 00:00:00
  TRACK 02 AUDIO
    INDEX 00 54:44:74
    INDEX 01 54:46:74
  TRACK 03 AUDIO
    INDEX 00 57:16:01
    INDEX 01 57:18:01
  TRACK 04 AUDIO
    INDEX 00 61:00:14
    INDEX 01 61:02:14
REM LEADOUT 64:03:46
